<svg version="1.1" id="Layer_1" xmlns="http://www.w3.org/2000/svg" xmlns:xlink="http://www.w3.org/1999/xlink" x="0px" y="0px" viewBox="0 0 500 500" style="width: 166px;" xml:space="preserve" data-imageid="traveling-3" imageName="Traveling" class="illustrations_image">
<style type="text/css">
	.st0_traveling-3{fill:#FFBF41;}
	.st1_traveling-3{fill:#85B23B;}
	.st2_traveling-3{fill:url(#SVGID_1_);}
	.st3_traveling-3{fill:url(#SVGID_00000103957877160768869190000009891116911821876907_);}
	.st4_traveling-3{fill:url(#SVGID_00000015327466433819045590000016059800127947548854_);}
	.st5_traveling-3{fill:url(#SVGID_00000096737443484340185490000003545732341975675523_);}
	.st6_traveling-3{fill:#935542;}
	.st7_traveling-3{fill:#D3894C;}
	.st8_traveling-3{fill:#42210B;}
	.st9_traveling-3{fill:#311E69;}
	.st10_traveling-3{fill:#68E1FD;}
	.st11_traveling-3{fill:#FFFFFF;}
	.st12_traveling-3{fill:#6A9546;}
	.st13_traveling-3{fill:#C66B28;}
</style>
<g id="Base_traveling-3">
	<path class="st0_traveling-3" d="M463.2,284.9l-163.8-95.3c-2.4-1.4-5.3-1.4-7.7,0l-245,140.2c-3.7,2.1-5,6.9-2.8,10.6c0.7,1.2,1.7,2.2,2.8,2.8&#10;&#9;&#9;l156.7,90.5c7.8,4.5,17.5,4.5,25.3,0l234.6-135.4c3.7-2.1,5-6.9,2.8-10.6C465.3,286.6,464.3,285.6,463.2,284.9z"/>
	<path class="st1_traveling-3" d="M194.2,428.5c0,0-19.8-51,23.4-60.4s56.9,22.6,72.2-4.7c14-24.9,26.3-52.6,65.6-50.5S418,324,418,324&#10;&#9;&#9;L228.5,433.7C228.5,433.7,213.3,443.9,194.2,428.5z"/>
</g>
<g id="Shadow_traveling-3">
	
		<linearGradient id="SVGID_1_-traveling-3" gradientUnits="userSpaceOnUse" x1="298.9925" y1="794.6807" x2="254.9225" y2="830.2106" gradientTransform="matrix(1 0 0 1 0 -498)">
		<stop offset="0" style="stop-color:#935542"/>
		<stop offset="1" style="stop-color:#FFFFFF;stop-opacity:0"/>
	</linearGradient>
	<path class="st2_traveling-3" d="M245.2,341.4c2,1.2,3.9,2.4,5.9,3.6l42.8-25l-21.3-15.8l-41,27.6C235.9,335.2,240.5,338.4,245.2,341.4z"/>
	
		<linearGradient id="SVGID_00000148622830645341413020000015857299028084867222_-traveling-3" gradientUnits="userSpaceOnUse" x1="125.2205" y1="813.7985" x2="91.8505" y2="845.5184" gradientTransform="matrix(1 0 0 1 0 -498)">
		<stop offset="0" style="stop-color:#935542"/>
		<stop offset="1" style="stop-color:#FFFFFF;stop-opacity:0"/>
	</linearGradient>
	<path style="fill:url(#SVGID_00000148622830645341413020000015857299028084867222_);" d="M92.9,369.4l35-33.1l-9.4-20.5l-57.4,37.9&#10;&#9;&#9;C69.7,359.6,84.5,363.3,92.9,369.4z"/>
	
		<linearGradient id="SVGID_00000146474437875357963850000004525322680375006604_-traveling-3" gradientUnits="userSpaceOnUse" x1="238.2984" y1="800.6388" x2="198.8185" y2="838.1688" gradientTransform="matrix(1 0 0 1 0 -498)">
		<stop offset="0" style="stop-color:#935542"/>
		<stop offset="1" style="stop-color:#FFFFFF;stop-opacity:0"/>
	</linearGradient>
	<path style="fill:url(#SVGID_00000146474437875357963850000004525322680375006604_);" d="M198.4,370.8l55.6-43.4L213.7,303&#10;&#9;&#9;l-57.4,37.9C164.9,346.8,190,364.7,198.4,370.8z"/>
	
		<linearGradient id="SVGID_00000182529746280446478340000006763003959221790872_-traveling-3" gradientUnits="userSpaceOnUse" x1="393.713" y1="781.2837" x2="357.033" y2="816.1537" gradientTransform="matrix(1 0 0 1 0 -498)">
		<stop offset="0" style="stop-color:#935542"/>
		<stop offset="1" style="stop-color:#FFFFFF;stop-opacity:0"/>
	</linearGradient>
	<path style="fill:url(#SVGID_00000182529746280446478340000006763003959221790872_);" d="M350.5,345l47-50l-14.5-5.5l-57.4,37.9&#10;&#9;&#9;C334.2,333.2,342.1,338.9,350.5,345z"/>
</g>
<g id="Character_traveling-3">
	<path class="st6_traveling-3" d="M257.8,312.2c2.2,1.4,3.8,2.3,3.8,2.3c1.7,0,5,0.4,4-1.9c1.2,1.9,2.6,3.6,4.3,5c1.9,1.6,12.5,3.1,8.8,9.4&#10;&#9;&#9;c-1.9,3.2-20.3-6.1-20.7-8.3C257.7,316.7,257.7,314.4,257.8,312.2z"/>
	<path class="st7_traveling-3" d="M265.7,301.5c-0.5,3.1-0.6,6.3-0.3,9.5c0.1,0.7,0.2,1.4,0.3,2.2l-8.1-1.4v-10.3L265.7,301.5L265.7,301.5z"/>
	<path class="st8_traveling-3" d="M257.8,310c2.2,1.5,3.8,2.3,3.8,2.3c1.7,0,5,0.4,4-1.9c1.1,1.9,2.6,3.6,4.3,5c1.9,1.6,12.5,6.9,8.1,9.6&#10;&#9;&#9;c-3.3,2.1-19.5-6.2-20-8.4C257.7,314.4,257.7,312.2,257.8,310z"/>
	<path class="st8_traveling-3" d="M261.2,312.4c-0.1-0.6-1.3-3.5-0.3-4.2s5-1.7,5.4-0.5s0,5.1,0,5.1"/>
	<path class="st6_traveling-3" d="M273,305.1c2.2,1.4,3.8,2.3,3.8,2.3c1.7,0,5,0.4,4-1.9c1.2,1.9,2.6,3.6,4.3,5c1.9,1.6,12.5,3.1,8.9,9.5&#10;&#9;&#9;c-1.9,3.2-20.3-6.1-20.7-8.3C273,309.5,272.9,307.3,273,305.1z"/>
	<path class="st7_traveling-3" d="M280.9,294.4c-0.5,3.1-0.6,6.3-0.3,9.5c0.1,0.7,0.2,1.4,0.3,2.2l-8.1-1.4v-10.3L280.9,294.4L280.9,294.4z"/>
	<path class="st8_traveling-3" d="M273,302.9c2.2,1.4,3.8,2.3,3.8,2.3c1.7,0,5,0.4,4-1.9c1.2,1.9,2.6,3.6,4.3,5c1.9,1.6,12.5,6.9,8.1,9.6&#10;&#9;&#9;c-3.3,2-19.5-6.2-20-8.5C272.9,307.3,272.9,305.1,273,302.9z"/>
	<path class="st8_traveling-3" d="M276.4,305.4c-0.1-0.6-1.2-3.5-0.3-4.2s5-1.7,5.4-0.5s0,5.1,0,5.1"/>
	<path class="st7_traveling-3" d="M331.8,150.4c0.2-0.6,0.2-1.2-0.1-1.8c-0.4-0.7-1.3-1.1-2.1-0.9v-0.1c0-0.2,0-0.5-0.1-0.7&#10;&#9;&#9;c-0.1-0.5-0.4-0.9-0.8-1.2c-0.1-0.1-0.3-0.2-0.4-0.3c0.7-0.9,1.5-1.8,2.1-2.8s1.3-2.7,0-3.2s-2.3,1.4-3,2.2&#10;&#9;&#9;c-1.2,1.3-2.3,2.7-3.5,4.1c-1.2-0.4-2.5-0.1-3.5,0.7c-1.9,1.7-3.7,3.5-5.4,5.5c-0.3,0.3-0.3,0.9,0,1.2c-0.1,0.2-0.2,0.4-0.1,0.7&#10;&#9;&#9;c0.1,0.4,0.2,0.8,0.3,1.2c0.1,0.7,0.3,1.3,0.6,2c0.2,0.4,0.6,0.7,1.1,0.6c-0.2,0.4,0,0.9,0.4,1.1c0.1,0.1,0.3,0.1,0.4,0.1&#10;&#9;&#9;c2.9-0.3,5.7-0.6,8.5-1.1c2.2-0.4,4.8-0.9,5.4-3.4c0-0.2,0-0.3,0-0.5c0.4-0.4,0.7-0.8,0.8-1.4C332.6,151.7,332.4,150.9,331.8,150.4&#10;&#9;&#9;z"/>
	<path class="st8_traveling-3" d="M329,147.5c-1,0.3-1.9,0.7-2.8,1.2c-0.4-1.2-1.1-2.3-2-3.3c-0.3-0.3-0.8,0.2-0.5,0.5c0.9,1,2.2,2.8,2.2,4.3&#10;&#9;&#9;c-0.1,1.7-1.7,1.8-2.6,0.6c-0.5-0.6-0.9-1.4-1.4-2.1c-0.3-0.4-0.9,0-0.6,0.4l1.4,2.1c0.2,0.5,0.6,0.9,1.1,1.2&#10;&#9;&#9;c0.9,0.3,1.8,0,2.5-0.6c0.5-0.7,0.6-1.6,0.3-2.4h0.1c0.8-0.5,1.7-0.9,2.6-1.2c0.2,0,0.3-0.3,0.3-0.5S329.2,147.5,329,147.5&#10;&#9;&#9;L329,147.5z"/>
	<path class="st8_traveling-3" d="M327.2,151.8c0.6-0.3,1.2-0.6,1.8-0.7l2-0.6c0.2-0.1,0.3-0.2,0.2-0.4s-0.2-0.3-0.4-0.2c-1.2,0.3-2.3,0.6-3.4,1&#10;&#9;&#9;c-0.7,0.2-1.2,0.9-1.3,1.6c0,0.5,0.3,0.9,0.7,1.1c-0.4,0.3-0.6,0.8-0.6,1.3s0.4,0.9,0.8,1c0.2,0,0.4-0.1,0.4-0.2s-0.1-0.4-0.2-0.4&#10;&#9;&#9;c-0.6-0.2-0.1-1,0.2-1.2c0.1-0.1,0.1-0.1,0.1-0.2c1.1,0,2.2-0.1,3.3-0.4c0.2-0.1,0.3-0.2,0.2-0.4s-0.2-0.3-0.4-0.2&#10;&#9;&#9;c-0.7,0.2-1.4,0.3-2.1,0.4c-0.3,0-0.6,0-0.9,0C326.8,153,326.7,152.2,327.2,151.8z"/>
	<path class="st9_traveling-3" d="M286.3,200.7c0,0,2.5,68.5-2.5,97.3c0,0-1,3.2-12.9,1.3l-0.8,6c0,0-8.4,2.6-16.3-1.1c0,0-3.3-66.6,6.6-105.2"/>
	<path class="st10_traveling-3 targetColor" d="M317.7,159.5l-3.2-11.9c0,0-17,18.3-37.6,15.6c-2.9,0.3-6,0.4-8.9,0.9c-1.5,0.3-2.9,0.8-4.1,1.5&#10;&#9;&#9;c-4.1,5.7-5.5,12.8-5.9,19.8c-0.2,3.8-0.2,7.7-0.2,11.5c0,2.4,0.1,4.9,0.4,7.3c0.1,0.6,0.4,1.1,0.9,1.4c1.4,0.9,3.1,1.4,4.8,1.5&#10;&#9;&#9;c7.2,0.3,15.9,0,21.5-4.7c0.4-0.5,0.7-1,1-1.5l-0.9-21.1C285.4,179.6,308.8,172.3,317.7,159.5z" style="fill: rgb(255, 255, 255);"/>
	<path class="st8_traveling-3" d="M279.8,178.6c0,0-0.5-3.7,0-4.1s10.2-5,11-4.7s0.6,4.4,0.6,4.4s2.3,0.6,2.3,1.5v4.5c-0.8,0.4-1.7,0.5-2.6,0.5&#10;&#9;&#9;c0,1.2-0.1,2.3-0.3,3.5l-8.6,1.8"/>
	<path class="st10_traveling-3 targetColor" d="M268,164.1c0,0-9.9,1.1-13.2,12.6c-3.8,13.5-1.3,16.6,2.9,20.1" style="fill: rgb(255, 255, 255);"/>
	<path class="st7_traveling-3" d="M280,152.2c0,0,3.1,11.5-2.1,14.1s-8.9-1.2-10.5-4.7s-1-11.5,5.8-12.3C279.1,148.6,280,152.2,280,152.2z"/>
	<path class="st6_traveling-3" d="M281,150.1c0.6-1.4,0.8-3.9-0.9-4.7c-1.3-0.5-2.7-0.2-3.7,0.7c-0.6-0.5-1.3-0.8-2-0.9&#10;&#9;&#9;c-2.7-0.8-5.5-0.2-7.6,1.6c-0.1,0.1-0.2,0.2-0.3,0.2c-0.2,0.1-0.3,0.1-0.5,0.1c-4.1,0.1-5,4.7-4.3,7.9c0.7,3.3,2.4,6.2,5,8.5&#10;&#9;&#9;c1.1,0.9,2.4,1.5,3.7,1.9c0.2,0,0.3-0.1,0.4-0.2v-0.1c0.2-0.1,0.2-0.4,0.1-0.5l0,0c-0.4-0.7-0.5-1.5-0.4-2.2&#10;&#9;&#9;c-0.1-0.3-0.2-0.6-0.4-0.9c-0.9,0.1-1.8-0.2-2.4-0.8c-0.4-0.4-0.7-1.2,0.1-1.4c0.3-0.1,0.6,0,0.8,0.2c0.1,0.2,0.2,0.4,0.4,0.5&#10;&#9;&#9;c0.1,0.1,0.1,0.1,0.2,0.1c0.3,0.1,0.6-0.1,0.5-0.4c-0.1-0.2-0.3-0.4-0.5-0.6c-0.5-0.9-0.4-2,0.4-2.6c1-0.9,1.9-0.4,2.9-0.3&#10;&#9;&#9;c0.7,0.1,1.4-0.3,1.5-1c0.1-0.5-0.1-0.9-0.2-1.4c0-0.7,0.4-1.3,1-1.6c1.2-0.5,1.9,0.5,2.8,1.1c0.7,0.5,1.6,0.7,2.5,0.5&#10;&#9;&#9;c1.1-0.3,1.8-1.4,1.5-2.5c-0.1-0.3-0.2-0.6-0.4-0.8C281.3,150.1,281.1,150,281,150.1z"/>
	<path class="st11_traveling-3" d="M275.4,222.8c-0.6,21.3-1.7,42.5-3.2,63.7c-0.4,6-0.9,11.9-1.4,17.9c0,0.5,0.8,0.5,0.8,0&#10;&#9;&#9;c1.8-21.2,3.2-42.4,4-63.6c0.2-6,0.4-12,0.6-17.9c-0.1-0.2-0.3-0.3-0.5-0.2C275.5,222.6,275.4,222.6,275.4,222.8z"/>
	<path class="st7_traveling-3" d="M289.3,176.8c0.7-0.4,1.1-1.3,0.9-2.1c-0.2-1.5-2.2-0.7-2.2-0.7s-0.2-2-1.6-2.1s-6.6,3.3-6.6,3.3l0.1-2.4&#10;&#9;&#9;c-0.1-0.4-0.3-0.5-0.8-0.4c-1.4,0.4-1.6,2.4-1.6,3.6c0,0.4,0,0.9,0.1,1.3c0.1,0.3,0.4,0.7,0.2,1.1c-1,0.6-2,1.1-3.1,1.5l0.3,0.6&#10;&#9;&#9;c0.3,0.3,0.5,0.7,0.8,1c1.2,1.3,2.1,2.7,2.9,4.2l2.5-1c0,0,8.7-1.4,9.1-2.5c0.2-0.7,0.2-1.5,0-2.3l0.5-1.3&#10;&#9;&#9;C291.2,177.4,289.3,176.8,289.3,176.8z"/>
	<path class="st8_traveling-3" d="M281.2,176.4c2.3-0.8,4.5-1.7,6.7-2.8c0.2-0.1,0.4,0.2,0.1,0.4c-2.2,1.1-4.4,2-6.7,2.8&#10;&#9;&#9;C281.1,176.9,281,176.5,281.2,176.4z"/>
	<path class="st8_traveling-3" d="M281.9,179c2.7-0.4,5.2-1.1,7.7-2.1c0.2-0.1,0.4,0.3,0.1,0.4c-2.5,1-5.1,1.8-7.8,2.2&#10;&#9;&#9;C281.7,179.4,281.6,179,281.9,179z"/>
	<path class="st8_traveling-3" d="M283.2,181.4c2.4-0.3,4.7-0.8,7-1.5c0.1,0,0.2,0.1,0.2,0.2c0,0.1,0,0.2-0.1,0.2c-2.3,0.7-4.7,1.2-7.1,1.5&#10;&#9;&#9;C283,181.8,283,181.4,283.2,181.4z"/>
	<path class="st9_traveling-3" d="M280.2,188.5l0.7-0.6c-1.8-3.3-4-6.5-6.5-9.3c-0.4-0.4-1,0.2-0.6,0.6C276.3,182.1,278.4,185.2,280.2,188.5z"/>
	<path class="st9_traveling-3" d="M272.7,178.9c-2.7,2.1-5.4,4.1-8.2,6c0.2-1.7,0.5-3.5,0.9-5.2c0-0.3-0.1-0.5-0.4-0.5c-0.2,0-0.4,0.1-0.5,0.3&#10;&#9;&#9;c-0.5,2-0.8,4-1,6.1l-1.8,1.2c-0.5,0.3,0,1.1,0.5,0.8c3.7-2.5,7.4-5.2,11-7.9C273.6,179.3,273.2,178.5,272.7,178.9z"/>
	<path class="st9_traveling-3" d="M280.9,187.9c0,0-10.6,14.9-23.1,8.9l0.2,5C257.9,201.8,273.9,202.1,280.9,187.9z"/>
	<path class="st10_traveling-3 targetColor" d="M254.5,157c0,0,1.8,3.2,14.1-0.4s20.5-10.7,19.4-13.1S251.9,151,254.5,157z" style="fill: rgb(255, 255, 255);"/>
	<path class="st10_traveling-3 targetColor" d="M278.1,148.8c0,0,0.1-9.4-9.7-6.5c-6.1,1.8-8.5,4.6-5.3,14.1" style="fill: rgb(255, 255, 255);"/>
	<path class="st8_traveling-3" d="M266.8,165.6c-0.3-0.4-0.5-0.9-0.7-1.4c-0.8,0.4-1.5,0.8-2.2,1.3v0.1l8.3,14.9l1-0.8l1.5,0.3&#10;&#9;&#9;C274.6,179.9,268.5,168.1,266.8,165.6z"/>
	<path class="st8_traveling-3" d="M279.3,165.2l1.6,9.2l2.8-1.6l-2-9.4h-1.4C280.1,164.1,279.7,164.7,279.3,165.2z"/>
</g>
<g id="Luggage_traveling-3">
	<path class="st9_traveling-3" d="M253.3,321.1l-3.4-1.6c-0.6-0.3-2,0.8-2.4,1.1c-0.7,0.4-1.2,0.9-1.6,1.6c-0.7,1.5-1.6,3.9-0.8,5.5&#10;&#9;&#9;s2.5,2.6,4.2,2.6"/>
	<ellipse transform="matrix(0.5 -0.866 0.866 0.5 -156.5276 379.9841)" class="st9_traveling-3" cx="250.8" cy="325.6" rx="5.1" ry="3.7"/>
	<ellipse transform="matrix(0.5 -0.866 0.866 0.5 -156.7344 380.0623)" class="st9_traveling-3" cx="250.8" cy="325.8" rx="3.2" ry="2.3"/>
	<path class="st10_traveling-3 targetColor" d="M219.1,244.4L201,254.9c-1.3,0.8-2.1,2.2-2.1,3.7V314l28.3,17.8c2.8,1.7,6.3,1.8,9.1,0.2l15.9-9L219.1,244.4z&#10;&#9;&#9;" style="fill: rgb(255, 255, 255);"/>
	<path class="st10_traveling-3 targetColor" d="M224.2,244.4l23.8,13.4c4.2,2.4,6.8,6.9,6.8,11.7V318c0,3.4-2.7,6.1-6.1,6.1c-1.1,0-2.2-0.3-3.2-0.9&#10;&#9;&#9;l-26.4-16.3c-1.8-1.1-2.9-3.1-2.9-5.2V249c0-2.9,2.4-5.3,5.3-5.3C222.5,243.7,223.4,244,224.2,244.4z" style="fill: rgb(255, 255, 255);"/>
	<path class="st9_traveling-3" d="M218.7,254.9v-26c0-0.4,0-0.9,0-1.3c0.2-1.2,1.3-0.4,1.9,0l3.4,2.1c2.3,1.4,4.6,2.8,6.9,4.2&#10;&#9;&#9;c1.7,1.1,1.4,2.7,1.4,4.4v24.5c0.1,0.6,0.6,1.1,1.2,1c0.5-0.1,1-0.5,1-1v-24.1c0-2.3,0.2-4.6-1.8-6.3c-2-1.4-4.1-2.8-6.3-3.9&#10;&#9;&#9;l-4-2.5c-0.7-0.6-1.6-1-2.4-1.3c-1.6-0.3-3.2,0.7-3.5,2.3c0,0.2-0.1,0.4-0.1,0.6c0,0.6,0,1.1,0,1.7v25.6c0.1,0.6,0.6,1.1,1.2,1&#10;&#9;&#9;C218.3,255.9,218.7,255.5,218.7,254.9L218.7,254.9z"/>
	<path class="st9_traveling-3" d="M230.3,333c-1.3,0-2.5-0.3-3.6-1l-25.9-15.4c-2-1.2-3.3-3.4-3.3-5.8V261c0-2.1,1.1-4,2.9-5.1&#10;&#9;&#9;c1.9-1.2,4.3-1.2,6.3-0.1l23.4,12.7c4.4,2.4,7.2,7,7.2,12v45.8c0,2.4-1.3,4.7-3.4,5.8C232.7,332.7,231.5,333,230.3,333z M203.6,257&#10;&#9;&#9;c-0.8,0-1.5,0.2-2.2,0.6c-1.2,0.7-2,2-2,3.4v49.8c0,1.7,0.9,3.2,2.4,4l25.9,15.4c1.6,1,3.6,1,5.2,0c1.5-0.8,2.4-2.4,2.4-4.1v-45.7&#10;&#9;&#9;c0-4.3-2.4-8.2-6.2-10.2l-23.4-12.7C205,257.2,204.3,257,203.6,257z"/>
</g>
<g id="Tree_traveling-3">
	<polyline class="st12_traveling-3" points="107.8,175.6 114,129 114,171.1 &#9;"/>
	<path class="st12_traveling-3" d="M100.2,139c17.7,10.1,11.4,44.6,9.4,53.9c-0.3,1.5-0.5,2.3-0.5,2.3"/>
	<path class="st12_traveling-3" d="M79.7,146.8l26.4,22.7l-0.7-17.2c0,0,2-14.2-12.6-15.6S79.7,146.8,79.7,146.8z"/>
	<path class="st7_traveling-3" d="M112.6,338.1c-5-0.6-9.5-3.2-12.6-7.1c8.4-52.6,2.6-153.1,2.6-153.1l7.1-0.9c13.7,39.4,17.6,139.5,18.2,159.4&#10;&#9;&#9;C123.6,338.7,117.5,338.9,112.6,338.1z"/>
	<path class="st1_traveling-3" d="M145,138.8c21.7-1,35.9,23.1,35.9,23.1l-70.8,27l-2.9-17.5"/>
	<path class="st1_traveling-3" d="M112.4,167.7c0,0,10.9-27.9,32.6-28.9"/>
	<path class="st12_traveling-3" d="M186.5,184.1c-2.5,0-5.1,0.1-7.6,0.2l-4.9-9.6l1.9,9.7c-6.9,0.2-13.9,0.6-20.8,1c-2.1,0.1-4.2,0.2-6.2,0.4&#10;&#9;&#9;c-0.8-3.2-1.8-6.7-2.9-8.3c-0.3-0.4-0.1,4.2,0.2,8.5c-12.2,0.9-24.4,2.4-36.2,5.4l1.2-3.7c0,0,4.5-22,41.7-30.6&#10;&#9;&#9;s60.5,27.9,60.5,27.9l-0.7,0.1C204.1,183.6,195.2,183.9,186.5,184.1z"/>
	<path class="st12_traveling-3" d="M100.2,139c-20.5-11.6-27,12.1-27,12.1"/>
	<path class="st1_traveling-3" d="M110.1,188.9c0,0,5.1-18.2-19.8-36.4s-52.8-1.9-52.8-1.9l17.2,13.8l12.6-5.1l-7,9.2l14.6,9.8&#10;&#9;&#9;c0,0,9.5-6.3,12.6-8.1c0.7-0.4-6.5,11.5-6.5,11.5l28,13.4L110.1,188.9z"/>
	<path class="st12_traveling-3" d="M93,193.9l-0.9-8.1l-2.3,8.9c-7.2,1.9-14.4,4.1-21.6,6.4l-2-7.1l-0.6,8c-3.9,1.2-7.7,2.5-11.5,3.9l-1.4-8.9&#10;&#9;&#9;l-1.3,9.9c-4.6,1.7-9,3.9-13.2,6.5C36.7,194.6,55.9,172,77,169.2c21.3-2.8,33.1,19.7,33.1,19.7l-5.6,2.5&#10;&#9;&#9;C100.6,192.2,96.8,193,93,193.9z"/>
	<path class="st1_traveling-3" d="M150.9,199.5l1.1-4.4l-1.9,4.1c-5.2-1.9-10.6-3.5-16-4.9l0.3-5.5l-1.8,5.2c-7.7-1.8-15.5-3.2-23.3-4.1&#10;&#9;&#9;c1.5-2.4,7.9-11,24-13.9c17.6-3.2,32.5,17.2,32.9,29.5l-2.1-0.3C159.7,203,155.3,201.1,150.9,199.5z"/>
</g>
<g id="Signpost_traveling-3">
	<polyline class="st7_traveling-3" points="391.7,104.5 413.5,93 418,95.2 413.5,109.5 398.4,112.9 &#9;"/>
	<polyline class="st13_traveling-3" points="390.8,108.8 418,95.2 423.5,99.2 421.4,107.5 395,122.4 &#9;"/>
	<polyline class="st7_traveling-3" points="382.1,94.9 390,90.6 397.9,95.1 390,101.9 &#9;"/>
	<polygon class="st7_traveling-3" points="400.3,139.2 426.4,155.1 435.6,149.8 431.8,138 395.4,116.8 &#9;"/>
	<polygon class="st13_traveling-3" points="395.5,119.7 429.5,140 433.6,151 426.4,155.1 391.3,133.7 &#9;"/>
	<polyline class="st7_traveling-3" points="387.4,102.9 365.6,91.4 361.5,93.6 365.6,107.9 380.8,111.3 &#9;"/>
	<polyline class="st13_traveling-3" points="388.7,107.2 361.5,93.6 356,97.6 358.1,105.9 384.5,120.8 &#9;"/>
	<path class="st7_traveling-3" d="M392.6,99.5c-0.3-0.1-0.7-0.2-1-0.3c-3.2-1.4-6.4-2.7-9.4-4.3v199.9c4.2,5.8,11,5.6,15.5,0.2&#10;&#9;&#9;c0.1-0.2,0.2-0.4,0.4-0.7V103.7C396.1,102.3,394.3,100.9,392.6,99.5z"/>
	<polygon class="st7_traveling-3" points="390,131 363.9,146.9 354.7,141.6 358.5,129.8 383.8,115.1 &#9;"/>
	<polygon class="st13_traveling-3" points="383.8,118.1 360.8,131.8 356.7,142.7 363.9,146.9 383.4,135 &#9;"/>
	<path class="st13_traveling-3" d="M391.3,99.1L390.8,299c2.7-0.4,5.1-1.8,6.7-4c0.1-0.2,0.2-0.4,0.4-0.7V95.1C395.7,96.4,393.5,97.7,391.3,99.1&#10;&#9;&#9;z"/>
</g>
</svg>